<svg width="616" height="258" viewBox="0 0 616 258" fill="none" xmlns="http://www.w3.org/2000/svg">
<g clip-path="url(#clip0)">
<path fill-rule="evenodd" clip-rule="evenodd" d="M3.00001 2C0.238587 2 -2 4.23858 -2 7V253C-2 255.761 0.238576 258 3 258H609C611.761 258 614 255.761 614 253V7C614 4.23858 611.761 2 609 2H3.00001Z" fill="#353B46"/>
<path fill-rule="evenodd" clip-rule="evenodd" d="M5.00001 -3C2.23859 -3 0 -0.761424 0 2V23C0 25.7614 2.23858 28 5 28H611C613.761 28 616 25.7614 616 23V2C616 -0.761423 613.761 -3 611 -3H5.00001Z" fill="#EEF1F5"/>
<path fill-rule="evenodd" clip-rule="evenodd" d="M14.5 17C17.5376 17 20 14.5376 20 11.5C20 8.46243 17.5376 6 14.5 6C11.4624 6 9 8.46243 9 11.5C9 14.5376 11.4624 17 14.5 17Z" fill="#EF534A"/>
<path fill-rule="evenodd" clip-rule="evenodd" d="M33.5 17C36.5376 17 39 14.5376 39 11.5C39 8.46243 36.5376 6 33.5 6C30.4624 6 28 8.46243 28 11.5C28 14.5376 30.4624 17 33.5 17Z" fill="#EDC04A"/>
<path fill-rule="evenodd" clip-rule="evenodd" d="M52.5 17C55.5376 17 58 14.5376 58 11.5C58 8.46243 55.5376 6 52.5 6C49.4624 6 47 8.46243 47 11.5C47 14.5376 49.4624 17 52.5 17Z" fill="#97D272"/>
<path d="M210.604 109.646H184.396L186.708 134.438L197.5 137.354L208.292 134.438L210.604 109.646Z" fill="#E65100"/>
<path d="M198 112V135.26L206.633 132.927L208.56 112H198Z" fill="#FF6D00"/>
<path d="M197.5 124.229V121.313H204.129L203.59 129.698L197.5 131.594V128.531L200.66 127.51L200.892 124.229H197.5V124.229ZM204.36 118.396L204.592 115.479H197.5V118.396H204.36Z" fill="white"/>
<path d="M197.5 128.531V131.594L191.41 129.698L191.102 125.688H194.185L194.34 127.51L197.5 128.531ZM193.723 118.396H197.5V115.479H190.485L191.025 124.229H197.5V121.313H193.954L193.723 118.396Z" fill="#EEEEEE"/>
<path d="M277.313 108.75H249.688L252.125 134.25L263.5 137.25L274.875 134.25L277.313 108.75Z" fill="#0277BD"/>
<path d="M263.5 111V134.925L272.6 132.525L274.631 111H263.5Z" fill="#039BE5"/>
<path d="M270.894 114.75H263.5V117.75H267.481L267.238 120.75H263.5V123.75H267.075L266.831 127.125L263.5 128.175V131.325L269.919 129.375L270.487 120.75L270.894 114.75Z" fill="white"/>
<path d="M263.5 114.75V117.75H256.269L256.025 114.75H263.5ZM259.763 120.75L259.925 123.75H263.5V120.75H259.763ZM260.088 125.25H256.838L257.081 129.375L263.5 131.325V128.175L260.169 127.125L260.088 125.25Z" fill="#EEEEEE"/>
<path d="M317.833 109.542H342.625L339.708 133.625L330.229 136.458L320.021 133.625L317.833 109.542Z" fill="#E7A42B"/>
<path d="M340.168 111.667L337.703 132.003L330.229 134.234V111.667H340.168Z" fill="#F2BF22"/>
<path d="M330.229 120.875L330.958 122.292L330.229 123.708H323.514L324.133 114.5H330.229L330.958 115.917L330.229 117.333H327.334L327.094 120.875H330.229Z" fill="#FAF9F8"/>
<path d="M330.156 129.07L330.229 129.049L330.958 130.792L330.229 132.01L330.185 132.024L324.111 130.338L323.703 125.833H326.634L326.839 128.15L330.156 129.07Z" fill="#EBEBEB"/>
<path d="M336.843 120.875L335.698 130.381L330.229 132.01V129.049L333.022 128.213L333.561 123.708H330.229V120.875H336.843Z" fill="white"/>
<path d="M337.463 118.75H334.553L334.364 117.333H330.229V114.5H336.886L337.01 115.393L337.463 118.75Z" fill="white"/>
<path d="M468.5 125.52C469.93 125.52 471.09 124.392 471.09 123C471.09 121.608 469.93 120.48 468.5 120.48C467.07 120.48 465.91 121.608 465.91 123C465.91 124.392 467.07 125.52 468.5 125.52Z" fill="#39C1D7"/>
<path d="M468.5 125.88C466.868 125.88 465.54 124.588 465.54 123C465.54 121.412 466.868 120.12 468.5 120.12C470.132 120.12 471.46 121.412 471.46 123C471.46 124.588 470.132 125.88 468.5 125.88ZM468.5 120.84C467.276 120.84 466.28 121.809 466.28 123C466.28 124.191 467.276 125.16 468.5 125.16C469.724 125.16 470.72 124.191 470.72 123C470.72 121.809 469.724 120.84 468.5 120.84Z" fill="#1F212B"/>
<path d="M482.745 123C482.745 121.065 480.35 119.39 476.633 118.393C477.589 114.758 477.295 111.9 475.587 110.93C474.914 110.548 474.097 110.478 473.159 110.722C471.747 111.09 470.128 112.165 468.5 113.745C466.872 112.165 465.253 111.09 463.841 110.722C462.903 110.477 462.086 110.548 461.413 110.93C459.705 111.9 459.411 114.758 460.367 118.393C456.65 119.39 454.255 121.065 454.255 123C454.255 124.935 456.65 126.61 460.367 127.608C459.411 131.242 459.705 134.1 461.413 135.07C461.824 135.304 462.289 135.421 462.802 135.421C463.129 135.421 463.476 135.374 463.841 135.279C465.253 134.91 466.872 133.835 468.5 132.255C470.128 133.835 471.747 134.91 473.159 135.279C473.524 135.374 473.871 135.421 474.198 135.421C474.711 135.421 475.176 135.304 475.587 135.07C477.295 134.1 477.588 131.242 476.633 127.608C480.35 126.61 482.745 124.935 482.745 123ZM473.447 111.765C473.715 111.695 473.963 111.66 474.192 111.66C474.511 111.66 474.79 111.728 475.028 111.863C476.172 112.513 476.405 114.894 475.553 118.131C474.379 117.874 473.098 117.68 471.737 117.561C470.938 116.44 470.107 115.42 469.27 114.526C470.756 113.077 472.215 112.086 473.447 111.765ZM472.479 125.268C472.043 126.011 471.584 126.724 471.113 127.406C470.277 127.467 469.405 127.5 468.5 127.5C467.595 127.5 466.723 127.467 465.887 127.406C465.416 126.724 464.957 126.011 464.521 125.268C464.07 124.499 463.665 123.741 463.303 123C463.665 122.259 464.07 121.502 464.521 120.733C464.958 119.989 465.416 119.276 465.888 118.594C466.724 118.533 467.595 118.5 468.5 118.5C469.405 118.5 470.276 118.533 471.113 118.594C471.584 119.276 472.043 119.989 472.479 120.733C472.93 121.502 473.335 122.259 473.698 123C473.335 123.741 472.93 124.499 472.479 125.268ZM474.288 124.276C474.673 125.162 474.992 126.015 475.249 126.826C474.407 127.008 473.499 127.161 472.528 127.273C472.84 126.796 473.147 126.308 473.443 125.803C473.743 125.292 474.023 124.782 474.288 124.276ZM468.5 130.689C467.895 130.037 467.29 129.316 466.7 128.536C467.289 128.564 467.889 128.58 468.5 128.58C469.111 128.58 469.711 128.564 470.3 128.536C469.71 129.316 469.105 130.037 468.5 130.689ZM464.471 127.273C463.501 127.161 462.592 127.008 461.75 126.826C462.008 126.015 462.326 125.162 462.711 124.276C462.976 124.782 463.257 125.292 463.556 125.803C463.853 126.308 464.16 126.796 464.471 127.273ZM462.712 121.724C462.327 120.838 462.008 119.985 461.751 119.174C462.593 118.991 463.502 118.839 464.472 118.726C464.16 119.204 463.854 119.692 463.557 120.197C463.257 120.709 462.977 121.218 462.712 121.724ZM468.5 115.312C469.105 115.963 469.71 116.684 470.3 117.464C469.711 117.436 469.111 117.42 468.5 117.42C467.889 117.42 467.289 117.436 466.7 117.464C467.29 116.684 467.895 115.963 468.5 115.312ZM473.443 120.198C473.147 119.692 472.84 119.204 472.528 118.727C473.499 118.839 474.407 118.992 475.25 119.174C474.992 119.985 474.674 120.838 474.289 121.725C474.023 121.218 473.743 120.709 473.443 120.198ZM461.972 111.863C462.21 111.728 462.489 111.66 462.808 111.66C463.036 111.66 463.286 111.695 463.553 111.765C464.785 112.086 466.244 113.076 467.73 114.526C466.893 115.419 466.062 116.44 465.263 117.56C463.902 117.68 462.621 117.873 461.447 118.13C460.595 114.894 460.828 112.512 461.972 111.863ZM455.365 123C455.365 121.705 457.363 120.322 460.669 119.436C461.027 120.573 461.498 121.771 462.077 123C461.498 124.229 461.027 125.427 460.669 126.564C457.363 125.678 455.365 124.295 455.365 123ZM463.553 134.235C462.912 134.402 462.381 134.369 461.972 134.138C460.828 133.488 460.595 131.106 461.447 127.87C462.621 128.127 463.902 128.32 465.263 128.44C466.062 129.56 466.893 130.581 467.73 131.474C466.244 132.924 464.785 133.914 463.553 134.235ZM475.028 134.138C474.619 134.37 474.088 134.402 473.447 134.235C472.215 133.914 470.756 132.924 469.27 131.474C470.107 130.581 470.938 129.56 471.737 128.439C473.098 128.32 474.379 128.126 475.553 127.869C476.405 131.106 476.172 133.488 475.028 134.138ZM476.331 126.564C475.973 125.427 475.502 124.229 474.923 123C475.502 121.771 475.973 120.573 476.331 119.436C479.637 120.322 481.635 121.705 481.635 123C481.635 124.295 479.637 125.678 476.331 126.564Z" fill="#39C1D7"/>
<path d="M462.8 135.601C462.256 135.601 461.758 135.474 461.32 135.225C459.606 134.251 459.18 131.526 460.144 127.733C456.281 126.664 454.07 124.944 454.07 123C454.07 121.056 456.281 119.336 460.144 118.267C459.18 114.474 459.606 111.749 461.32 110.775C462.037 110.367 462.901 110.29 463.889 110.548C465.264 110.907 466.856 111.923 468.5 113.492C470.144 111.923 471.736 110.907 473.111 110.548C474.099 110.291 474.963 110.367 475.681 110.775C477.394 111.749 477.82 114.474 476.856 118.267C480.719 119.336 482.93 121.056 482.93 123C482.93 124.944 480.719 126.664 476.856 127.733C477.82 131.526 477.394 134.251 475.681 135.225C474.968 135.63 474.095 135.708 473.112 135.452C471.736 135.093 470.144 134.077 468.5 132.508C466.856 134.077 465.264 135.094 463.889 135.452C463.51 135.551 463.145 135.601 462.802 135.601C462.802 135.601 462.801 135.601 462.8 135.601ZM462.803 110.76C462.322 110.76 461.888 110.868 461.506 111.086C459.943 111.974 459.584 114.689 460.546 118.348C460.571 118.443 460.513 118.54 460.416 118.566C456.674 119.57 454.44 121.228 454.44 123C454.44 124.772 456.674 126.43 460.416 127.434C460.513 127.46 460.571 127.557 460.546 127.652C459.584 131.311 459.943 134.026 461.506 134.914C461.887 135.131 462.322 135.24 462.8 135.24C462.801 135.24 462.802 135.24 462.802 135.24C463.112 135.24 463.445 135.195 463.793 135.104C465.142 134.753 466.725 133.723 468.369 132.127C468.442 132.057 468.558 132.057 468.631 132.127C470.275 133.723 471.858 134.752 473.207 135.104C474.093 135.334 474.867 135.27 475.494 134.914C477.057 134.026 477.416 131.311 476.454 127.652C476.429 127.557 476.487 127.46 476.584 127.434C480.326 126.43 482.56 124.772 482.56 123C482.56 121.228 480.326 119.57 476.584 118.566C476.487 118.54 476.429 118.443 476.454 118.348C477.416 114.689 477.057 111.974 475.494 111.086C474.865 110.728 474.096 110.665 473.207 110.896C471.857 111.247 470.275 112.277 468.63 113.873C468.558 113.943 468.441 113.943 468.369 113.873C466.724 112.277 465.142 111.247 463.792 110.896C463.444 110.805 463.114 110.76 462.803 110.76ZM474.193 134.52C473.948 134.52 473.683 134.483 473.399 134.409C472.166 134.088 470.693 133.117 469.139 131.601C469.069 131.533 469.066 131.424 469.133 131.353C469.971 130.458 470.795 129.444 471.585 128.337C471.616 128.293 471.665 128.265 471.72 128.26C473.057 128.143 474.332 127.952 475.512 127.694C475.609 127.672 475.707 127.73 475.732 127.825C476.596 131.109 476.362 133.588 475.121 134.293C474.855 134.444 474.544 134.52 474.193 134.52ZM469.525 131.468C470.987 132.869 472.357 133.765 473.494 134.061C474.086 134.215 474.571 134.188 474.934 133.982C475.991 133.382 476.176 131.076 475.418 128.083C474.297 128.32 473.095 128.498 471.84 128.611C471.094 129.652 470.316 130.612 469.525 131.468ZM462.807 134.52C462.456 134.52 462.145 134.444 461.879 134.293C460.638 133.588 460.403 131.109 461.268 127.825C461.293 127.73 461.391 127.674 461.488 127.694C462.667 127.952 463.943 128.143 465.28 128.26C465.334 128.265 465.384 128.293 465.415 128.337C466.205 129.444 467.029 130.458 467.867 131.353C467.934 131.424 467.931 131.533 467.861 131.601C466.307 133.117 464.834 134.088 463.602 134.409C463.317 134.483 463.052 134.52 462.807 134.52ZM461.582 128.083C460.824 131.076 461.009 133.382 462.066 133.982C462.429 134.188 462.914 134.215 463.506 134.061C464.643 133.765 466.013 132.869 467.475 131.468C466.684 130.612 465.907 129.652 465.161 128.611C463.905 128.498 462.703 128.32 461.582 128.083ZM468.5 130.868C468.448 130.868 468.398 130.847 468.363 130.809C467.747 130.147 467.138 129.418 466.551 128.642C466.509 128.586 466.503 128.512 466.537 128.45C466.571 128.389 466.634 128.352 466.709 128.356C467.932 128.414 469.068 128.414 470.291 128.356C470.365 128.351 470.429 128.389 470.463 128.45C470.497 128.512 470.491 128.586 470.449 128.642C469.862 129.417 469.253 130.146 468.637 130.809C468.602 130.847 468.552 130.868 468.5 130.868ZM467.082 128.733C467.545 129.328 468.02 129.894 468.5 130.419C468.98 129.894 469.455 129.329 469.918 128.733C468.952 128.769 468.048 128.769 467.082 128.733ZM468.5 127.68C467.623 127.68 466.74 127.648 465.873 127.585C465.817 127.581 465.765 127.552 465.734 127.506C465.239 126.79 464.777 126.067 464.36 125.357C463.923 124.612 463.511 123.846 463.135 123.077C463.111 123.028 463.111 122.972 463.135 122.923C463.511 122.154 463.923 121.388 464.36 120.643C464.776 119.934 465.238 119.211 465.734 118.494C465.765 118.448 465.817 118.419 465.874 118.414C467.607 118.288 469.394 118.288 471.126 118.414C471.183 118.418 471.234 118.447 471.266 118.494C471.762 119.211 472.224 119.934 472.64 120.643C473.077 121.388 473.489 122.154 473.865 122.923C473.889 122.972 473.889 123.028 473.865 123.077C473.489 123.846 473.077 124.612 472.64 125.357C472.223 126.067 471.761 126.79 471.266 127.506C471.235 127.552 471.183 127.581 471.127 127.585C470.26 127.648 469.377 127.68 468.5 127.68ZM465.991 127.233C467.648 127.348 469.352 127.348 471.009 127.233C471.48 126.547 471.92 125.857 472.318 125.178C472.736 124.466 473.131 123.734 473.492 123C473.131 122.266 472.736 121.533 472.318 120.822C471.921 120.144 471.48 119.453 471.009 118.767C469.351 118.651 467.648 118.651 465.99 118.767C465.519 119.453 465.078 120.144 464.68 120.822C464.263 121.534 463.868 122.266 463.506 123C463.868 123.734 464.263 124.467 464.68 125.178C465.079 125.857 465.52 126.547 465.991 127.233ZM472.529 127.454C472.466 127.454 472.406 127.422 472.372 127.37C472.334 127.311 472.334 127.236 472.372 127.177C472.716 126.651 473.014 126.172 473.283 125.714C473.565 125.232 473.848 124.721 474.124 124.195C474.156 124.133 474.225 124.095 474.295 124.097C474.367 124.099 474.431 124.142 474.459 124.207C474.834 125.07 475.16 125.934 475.426 126.773C475.442 126.821 475.435 126.873 475.409 126.916C475.383 126.96 475.34 126.991 475.29 127.002C474.42 127.191 473.498 127.342 472.55 127.452C472.543 127.453 472.536 127.454 472.529 127.454ZM474.271 124.703C474.051 125.113 473.827 125.511 473.604 125.892C473.388 126.26 473.154 126.64 472.894 127.047C473.623 126.953 474.333 126.834 475.013 126.692C474.799 126.039 474.551 125.372 474.271 124.703ZM464.471 127.454C464.464 127.454 464.457 127.453 464.449 127.452C463.502 127.342 462.58 127.19 461.711 127.001C461.66 126.991 461.617 126.96 461.591 126.916C461.565 126.873 461.559 126.821 461.574 126.773C461.84 125.933 462.166 125.07 462.541 124.206C462.569 124.142 462.633 124.099 462.705 124.097C462.772 124.09 462.844 124.132 462.876 124.194C463.152 124.72 463.435 125.232 463.717 125.713C463.987 126.172 464.285 126.651 464.628 127.177C464.666 127.235 464.666 127.31 464.628 127.369C464.594 127.422 464.535 127.454 464.471 127.454ZM461.988 126.692C462.667 126.834 463.378 126.953 464.107 127.047C463.846 126.64 463.612 126.26 463.396 125.892C463.173 125.511 462.95 125.112 462.73 124.703C462.449 125.372 462.201 126.039 461.988 126.692ZM476.331 126.744C476.252 126.744 476.179 126.694 476.154 126.617C475.793 125.472 475.322 124.281 474.755 123.075C474.732 123.028 474.732 122.973 474.755 122.925C475.322 121.719 475.793 120.528 476.155 119.383C476.184 119.289 476.286 119.237 476.381 119.262C479.736 120.162 481.82 121.594 481.82 123C481.82 124.406 479.735 125.838 476.38 126.738C476.364 126.742 476.347 126.744 476.331 126.744ZM475.126 123C475.658 124.136 476.104 125.26 476.454 126.344C479.495 125.5 481.45 124.196 481.45 123C481.45 121.804 479.495 120.5 476.454 119.656C476.104 120.741 475.657 121.865 475.126 123ZM460.669 126.744C460.653 126.744 460.636 126.742 460.62 126.738C457.265 125.838 455.18 124.406 455.18 123C455.18 121.594 457.264 120.162 460.62 119.262C460.715 119.237 460.816 119.289 460.846 119.383C461.207 120.528 461.678 121.719 462.246 122.925C462.268 122.973 462.268 123.027 462.246 123.075C461.678 124.281 461.207 125.473 460.846 126.617C460.822 126.694 460.749 126.744 460.669 126.744ZM460.546 119.656C457.505 120.5 455.55 121.804 455.55 123C455.55 124.196 457.505 125.5 460.546 126.344C460.896 125.26 461.342 124.136 461.874 123C461.343 121.865 460.896 120.741 460.546 119.656ZM474.289 121.905C474.219 121.905 474.155 121.867 474.124 121.806C473.844 121.271 473.568 120.773 473.283 120.287C473.014 119.829 472.717 119.35 472.372 118.823C472.334 118.765 472.334 118.69 472.372 118.631C472.41 118.572 472.478 118.54 472.551 118.548C473.499 118.658 474.421 118.81 475.29 118.999C475.341 119.009 475.384 119.04 475.41 119.084C475.436 119.127 475.442 119.179 475.427 119.227C475.16 120.068 474.834 120.932 474.46 121.794C474.431 121.859 474.367 121.902 474.296 121.904C474.293 121.905 474.291 121.905 474.289 121.905ZM473.604 120.108C473.83 120.494 474.05 120.885 474.27 121.297C474.55 120.629 474.799 119.962 475.012 119.308C474.332 119.166 473.622 119.047 472.893 118.953C473.155 119.36 473.388 119.741 473.604 120.108ZM462.711 121.905C462.709 121.905 462.707 121.905 462.705 121.905C462.633 121.902 462.569 121.86 462.541 121.795C462.166 120.932 461.84 120.069 461.574 119.228C461.558 119.18 461.564 119.127 461.59 119.084C461.616 119.041 461.66 119.01 461.71 118.999C462.58 118.81 463.501 118.658 464.45 118.548C464.522 118.541 464.59 118.572 464.628 118.631C464.666 118.69 464.666 118.765 464.628 118.824C464.284 119.351 463.986 119.829 463.717 120.287C463.432 120.774 463.157 121.271 462.877 121.807C462.845 121.867 462.781 121.905 462.711 121.905ZM461.988 119.308C462.201 119.962 462.45 120.629 462.729 121.297C462.95 120.885 463.17 120.494 463.396 120.108C463.612 119.741 463.845 119.36 464.107 118.953C463.378 119.047 462.667 119.166 461.988 119.308ZM475.553 118.311C475.54 118.311 475.526 118.309 475.513 118.306C474.333 118.048 473.057 117.857 471.72 117.74C471.666 117.735 471.616 117.707 471.585 117.663C470.795 116.556 469.97 115.542 469.133 114.648C469.066 114.577 469.069 114.467 469.139 114.399C470.693 112.884 472.166 111.912 473.399 111.591C474.09 111.411 474.671 111.452 475.121 111.707C476.362 112.413 476.597 114.891 475.732 118.176C475.711 118.256 475.636 118.311 475.553 118.311ZM471.839 117.389C473.095 117.502 474.297 117.68 475.418 117.917C476.176 114.924 475.991 112.618 474.934 112.018C474.572 111.812 474.086 111.785 473.494 111.939C472.357 112.235 470.987 113.131 469.525 114.533C470.316 115.388 471.093 116.348 471.839 117.389ZM461.447 118.311C461.364 118.311 461.289 118.256 461.268 118.175C460.403 114.891 460.638 112.413 461.879 111.707C461.879 111.707 461.879 111.707 461.879 111.707C462.329 111.452 462.91 111.411 463.601 111.591C464.834 111.913 466.307 112.884 467.861 114.399C467.931 114.467 467.933 114.577 467.867 114.648C467.029 115.542 466.204 116.556 465.415 117.663C465.384 117.707 465.334 117.735 465.28 117.74C463.943 117.857 462.667 118.048 461.487 118.306C461.474 118.309 461.46 118.311 461.447 118.311ZM462.066 112.018C461.009 112.618 460.824 114.924 461.582 117.917C462.702 117.68 463.905 117.502 465.16 117.389C465.907 116.348 466.684 115.388 467.474 114.532C466.012 113.131 464.643 112.235 463.505 111.938C462.916 111.785 462.429 111.812 462.066 112.018ZM470.3 117.644C470.297 117.644 470.294 117.644 470.291 117.644C469.068 117.586 467.933 117.586 466.71 117.644C466.633 117.646 466.571 117.61 466.538 117.549C466.504 117.488 466.509 117.414 466.552 117.357C467.139 116.582 467.748 115.853 468.363 115.191C468.433 115.116 468.567 115.116 468.638 115.191C469.252 115.852 469.862 116.581 470.449 117.357C470.491 117.413 470.497 117.488 470.463 117.549C470.43 117.608 470.367 117.644 470.3 117.644ZM468.5 117.24C468.96 117.24 469.435 117.249 469.918 117.268C469.455 116.671 468.979 116.106 468.5 115.581C468.021 116.106 467.545 116.671 467.082 117.268C467.565 117.249 468.04 117.24 468.5 117.24Z" fill="#1F212B"/>
<path d="M401 132.6C390.654 132.6 382.237 128.742 382.237 124C382.237 119.258 390.654 115.4 401 115.4C411.345 115.4 419.762 119.258 419.762 124C419.762 128.742 411.345 132.6 401 132.6Z" fill="#DCD5F2"/>
<path d="M401 115.6C411.215 115.6 419.525 119.368 419.525 124C419.525 128.632 411.215 132.4 401 132.4C390.785 132.4 382.475 128.632 382.475 124C382.475 119.368 390.785 115.6 401 115.6ZM401 115.2C390.507 115.2 382 119.14 382 124C382 128.86 390.507 132.8 401 132.8C411.493 132.8 420 128.86 420 124C420 119.14 411.493 115.2 401 115.2Z" fill="#8B75A1"/>
<path d="M393.928 121.6C394.748 121.6 395.455 121.849 395.868 122.282C396.224 122.656 396.334 123.151 396.185 123.713C395.786 125.23 395.013 125.6 392.246 125.6H390.279L391.111 121.6H393.928ZM393.928 120.8H390.313L388.65 128.8H389.6L390.102 126.4H392.246C395.031 126.4 396.546 126.038 397.113 123.886C397.6 122.038 395.982 120.8 393.928 120.8ZM411.028 121.6C411.848 121.6 412.555 121.849 412.968 122.282C413.324 122.656 413.434 123.151 413.285 123.713C412.886 125.23 412.113 125.6 409.346 125.6H407.379L408.211 121.6H411.028ZM411.028 120.8H407.413L405.75 128.8H406.7L407.202 126.4H409.346C412.131 126.4 413.646 126.038 414.213 123.886C414.7 122.038 413.082 120.8 411.028 120.8Z" fill="#36404D"/>
<path d="M405.309 121.285C404.892 120.939 404.156 120.8 403.059 120.8H400.428L401 118.4H400.003L398.15 126.4H399.095L400.23 121.6H400.429H403.059C404.17 121.6 404.529 121.76 404.643 121.855C404.806 121.99 404.845 122.345 404.746 122.8L403.907 126.4H404.907L405.68 122.948C405.845 122.185 405.72 121.625 405.309 121.285Z" fill="#36404D"/>
<path d="M545.917 124.304C544.956 124.309 544.123 124.555 543.426 124.923C543.171 124.379 542.912 123.901 542.869 123.546C542.818 123.131 542.759 122.883 542.821 122.389C542.882 121.895 543.15 121.195 543.146 121.143C543.142 121.09 543.086 120.839 542.532 120.834C541.977 120.83 541.503 120.948 541.447 121.104C541.392 121.26 541.285 121.611 541.219 121.978C541.122 122.514 540.112 124.427 539.539 125.427C539.351 125.036 539.192 124.692 539.159 124.42C539.108 124.005 539.049 123.757 539.111 123.263C539.172 122.769 539.44 122.069 539.436 122.017C539.432 121.964 539.376 121.713 538.822 121.708C538.267 121.704 537.793 121.822 537.737 121.978C537.682 122.134 537.622 122.499 537.509 122.852C537.395 123.205 536.053 126.395 535.701 127.222C535.522 127.643 535.366 127.982 535.256 128.213C535.256 128.212 535.256 128.211 535.256 128.211C535.256 128.211 535.249 128.227 535.237 128.253C535.143 128.449 535.087 128.558 535.087 128.558C535.087 128.558 535.088 128.559 535.089 128.562C535.014 128.707 534.934 128.841 534.895 128.841C534.867 128.841 534.812 128.456 534.907 127.928C535.107 126.821 535.586 125.096 535.582 125.036C535.579 125.005 535.671 124.705 535.269 124.547C534.877 124.395 534.738 124.649 534.702 124.65C534.668 124.651 534.642 124.74 534.642 124.74C534.642 124.74 535.078 122.799 533.811 122.799C533.019 122.799 531.921 123.724 531.381 124.562C531.039 124.761 530.309 125.186 529.534 125.64C529.237 125.815 528.933 125.993 528.645 126.162C528.626 126.139 528.606 126.116 528.586 126.093C527.049 124.344 524.209 123.107 524.329 120.756C524.372 119.901 524.651 117.651 529.787 114.921C533.994 112.685 537.362 113.301 537.944 114.664C538.775 116.613 536.144 120.233 531.775 120.756C530.111 120.955 529.234 120.267 529.016 120.011C528.786 119.741 528.752 119.729 528.666 119.779C528.527 119.862 528.615 120.1 528.666 120.242C528.797 120.604 529.332 121.246 530.244 121.566C531.047 121.847 533.002 122.001 535.365 121.026C538.012 119.934 540.079 116.895 539.472 114.356C538.854 111.773 534.839 110.924 531.039 112.364C528.775 113.221 526.327 114.567 524.566 116.323C522.473 118.411 522.139 120.229 522.277 120.988C522.766 123.687 526.252 125.444 527.649 126.746C527.58 126.787 527.515 126.825 527.456 126.859C526.756 127.229 524.098 128.713 523.433 130.28C522.679 132.058 523.553 133.334 524.132 133.506C525.925 134.038 527.765 133.081 528.754 131.507C529.743 129.935 529.622 127.886 529.169 126.951C529.163 126.94 529.157 126.929 529.151 126.917C529.332 126.803 529.516 126.687 529.699 126.572C530.055 126.349 530.405 126.141 530.708 125.965C530.538 126.461 530.414 127.056 530.349 127.915C530.273 128.925 530.661 130.229 531.169 130.743C531.392 130.969 531.661 130.974 531.831 130.974C532.422 130.974 532.691 130.45 532.988 129.83C533.352 129.07 533.675 128.185 533.675 128.185C533.675 128.185 533.27 130.575 534.374 130.575C534.776 130.575 535.181 130.019 535.361 129.735C535.362 129.739 535.362 129.74 535.362 129.74C535.362 129.74 535.372 129.721 535.393 129.685C535.435 129.617 535.459 129.573 535.459 129.573C535.459 129.573 535.459 129.569 535.461 129.561C535.622 129.261 535.981 128.579 536.519 127.453C537.214 125.998 537.88 124.175 537.88 124.175C537.88 124.175 537.942 124.621 538.145 125.358C538.264 125.791 538.518 126.271 538.719 126.731C538.557 126.969 538.459 127.106 538.459 127.106C538.459 127.106 538.459 127.109 538.461 127.113C538.332 127.296 538.188 127.493 538.037 127.685C537.488 128.381 536.835 129.177 536.747 129.407C536.644 129.677 536.669 129.876 536.868 130.037C537.014 130.153 537.272 130.172 537.543 130.153C538.036 130.117 538.382 129.987 538.554 129.907C538.821 129.807 539.131 129.649 539.422 129.42C539.961 128.998 540.285 128.395 540.254 127.595C540.236 127.154 540.105 126.717 539.938 126.305C539.987 126.231 540.036 126.155 540.085 126.079C540.933 124.756 541.591 123.303 541.591 123.303C541.591 123.303 541.653 123.748 541.856 124.485C541.959 124.858 542.162 125.265 542.344 125.664C541.547 126.355 541.052 127.159 540.881 127.685C540.563 128.66 540.812 129.101 541.278 129.202C541.489 129.247 541.788 129.144 542.012 129.043C542.292 128.944 542.627 128.779 542.941 128.533C543.479 128.111 543.997 127.521 543.966 126.721C543.951 126.357 543.859 125.996 543.733 125.649C544.409 125.349 545.284 125.182 546.399 125.321C548.791 125.619 549.26 127.211 549.171 127.878C549.081 128.545 548.579 128.911 548.411 129.022C548.244 129.133 548.192 129.171 548.206 129.253C548.227 129.373 548.304 129.369 548.447 129.343C548.644 129.307 549.703 128.801 549.749 127.57C549.806 126.006 548.402 124.29 545.917 124.304ZM527.481 130.933C526.689 131.855 525.582 132.203 525.107 131.91C524.595 131.593 524.798 130.236 525.77 129.257C526.362 128.661 527.127 128.112 527.635 127.774C527.751 127.7 527.92 127.591 528.126 127.459C528.161 127.439 528.18 127.427 528.18 127.427L528.179 127.426C528.219 127.401 528.26 127.375 528.302 127.347C528.656 128.74 528.313 129.966 527.481 130.933ZM533.253 126.749C532.977 127.466 532.4 129.302 532.048 129.203C531.746 129.119 531.562 127.723 531.988 126.35C532.202 125.659 532.659 124.833 532.928 124.512C533.361 123.996 533.837 123.827 533.952 124.037C534.099 124.303 533.426 126.299 533.253 126.749ZM538.021 129.175C537.904 129.241 537.797 129.281 537.747 129.25C537.711 129.227 537.796 129.141 537.796 129.141C537.796 129.141 538.392 128.456 538.627 128.145C538.764 127.963 538.922 127.748 539.094 127.508C539.096 127.532 539.096 127.556 539.096 127.579C539.095 128.399 538.352 128.953 538.021 129.175ZM541.694 128.282C541.607 128.216 541.622 128.002 541.909 127.335C542.021 127.073 542.279 126.632 542.725 126.211C542.777 126.384 542.808 126.55 542.807 126.705C542.802 127.737 542.112 128.122 541.694 128.282Z" fill="#F06292"/>
</g>
<path d="M14.508 131.216C13.752 131.216 13.086 131.096 12.51 130.856C11.946 130.616 11.466 130.28 11.07 129.848C10.686 129.416 10.398 128.906 10.206 128.318C10.014 127.718 9.918 127.058 9.918 126.338C9.918 125.618 10.02 124.958 10.224 124.358C10.44 123.758 10.74 123.242 11.124 122.81C11.508 122.366 11.976 122.024 12.528 121.784C13.092 121.532 13.716 121.406 14.4 121.406C14.82 121.406 15.24 121.442 15.66 121.514C16.08 121.586 16.482 121.7 16.866 121.856L16.488 123.278C16.236 123.158 15.942 123.062 15.606 122.99C15.282 122.918 14.934 122.882 14.562 122.882C13.626 122.882 12.906 123.176 12.402 123.764C11.91 124.352 11.664 125.21 11.664 126.338C11.664 126.842 11.718 127.304 11.826 127.724C11.946 128.144 12.126 128.504 12.366 128.804C12.618 129.104 12.936 129.338 13.32 129.506C13.704 129.662 14.172 129.74 14.724 129.74C15.168 129.74 15.57 129.698 15.93 129.614C16.29 129.53 16.572 129.44 16.776 129.344L17.01 130.748C16.914 130.808 16.776 130.868 16.596 130.928C16.416 130.976 16.212 131.018 15.984 131.054C15.756 131.102 15.51 131.138 15.246 131.162C14.994 131.198 14.748 131.216 14.508 131.216ZM26.8407 126.32C26.8407 127.064 26.7327 127.736 26.5167 128.336C26.3007 128.936 25.9947 129.452 25.5987 129.884C25.2147 130.316 24.7527 130.652 24.2127 130.892C23.6727 131.12 23.0847 131.234 22.4487 131.234C21.8127 131.234 21.2247 131.12 20.6847 130.892C20.1447 130.652 19.6767 130.316 19.2807 129.884C18.8967 129.452 18.5967 128.936 18.3807 128.336C18.1647 127.736 18.0567 127.064 18.0567 126.32C18.0567 125.588 18.1647 124.922 18.3807 124.322C18.5967 123.71 18.8967 123.188 19.2807 122.756C19.6767 122.324 20.1447 121.994 20.6847 121.766C21.2247 121.526 21.8127 121.406 22.4487 121.406C23.0847 121.406 23.6727 121.526 24.2127 121.766C24.7527 121.994 25.2147 122.324 25.5987 122.756C25.9947 123.188 26.3007 123.71 26.5167 124.322C26.7327 124.922 26.8407 125.588 26.8407 126.32ZM25.0947 126.32C25.0947 125.264 24.8547 124.43 24.3747 123.818C23.9067 123.194 23.2647 122.882 22.4487 122.882C21.6327 122.882 20.9847 123.194 20.5047 123.818C20.0367 124.43 19.8027 125.264 19.8027 126.32C19.8027 127.376 20.0367 128.216 20.5047 128.84C20.9847 129.452 21.6327 129.758 22.4487 129.758C23.2647 129.758 23.9067 129.452 24.3747 128.84C24.8547 128.216 25.0947 127.376 25.0947 126.32ZM29.1959 121.91C29.5799 121.814 30.0899 121.712 30.7259 121.604C31.3619 121.496 32.0939 121.442 32.9219 121.442C33.6659 121.442 34.2839 121.55 34.7759 121.766C35.2679 121.97 35.6579 122.264 35.9459 122.648C36.2459 123.02 36.4559 123.47 36.5759 123.998C36.6959 124.526 36.7559 125.108 36.7559 125.744V131H35.0819V126.104C35.0819 125.528 35.0399 125.036 34.9559 124.628C34.8839 124.22 34.7579 123.89 34.5779 123.638C34.3979 123.386 34.1579 123.206 33.8579 123.098C33.5579 122.978 33.1859 122.918 32.7419 122.918C32.5619 122.918 32.3759 122.924 32.1839 122.936C31.9919 122.948 31.8059 122.966 31.6259 122.99C31.4579 123.002 31.3019 123.02 31.1579 123.044C31.0259 123.068 30.9299 123.086 30.8699 123.098V131H29.1959V121.91ZM41.7098 129.794C42.3938 129.794 42.8978 129.704 43.2218 129.524C43.5578 129.344 43.7258 129.056 43.7258 128.66C43.7258 128.252 43.5638 127.928 43.2398 127.688C42.9158 127.448 42.3818 127.178 41.6378 126.878C41.2778 126.734 40.9298 126.59 40.5938 126.446C40.2698 126.29 39.9878 126.11 39.7478 125.906C39.5078 125.702 39.3158 125.456 39.1718 125.168C39.0278 124.88 38.9558 124.526 38.9558 124.106C38.9558 123.278 39.2618 122.624 39.8738 122.144C40.4858 121.652 41.3198 121.406 42.3758 121.406C42.6398 121.406 42.9038 121.424 43.1678 121.46C43.4318 121.484 43.6778 121.52 43.9058 121.568C44.1338 121.604 44.3318 121.646 44.4998 121.694C44.6798 121.742 44.8178 121.784 44.9138 121.82L44.6078 123.26C44.4278 123.164 44.1458 123.068 43.7618 122.972C43.3778 122.864 42.9158 122.81 42.3758 122.81C41.9078 122.81 41.4998 122.906 41.1518 123.098C40.8038 123.278 40.6298 123.566 40.6298 123.962C40.6298 124.166 40.6658 124.346 40.7378 124.502C40.8218 124.658 40.9418 124.802 41.0978 124.934C41.2658 125.054 41.4698 125.168 41.7098 125.276C41.9498 125.384 42.2378 125.498 42.5738 125.618C43.0178 125.786 43.4138 125.954 43.7618 126.122C44.1098 126.278 44.4038 126.464 44.6438 126.68C44.8958 126.896 45.0878 127.16 45.2198 127.472C45.3518 127.772 45.4178 128.144 45.4178 128.588C45.4178 129.452 45.0938 130.106 44.4458 130.55C43.8098 130.994 42.8978 131.216 41.7098 131.216C40.8818 131.216 40.2338 131.144 39.7658 131C39.2978 130.868 38.9798 130.766 38.8118 130.694L39.1178 129.254C39.3098 129.326 39.6158 129.434 40.0358 129.578C40.4558 129.722 41.0138 129.794 41.7098 129.794ZM49.131 121.64H52.677V123.044H49.131V127.364C49.131 127.832 49.167 128.222 49.239 128.534C49.311 128.834 49.419 129.074 49.563 129.254C49.707 129.422 49.887 129.542 50.103 129.614C50.319 129.686 50.571 129.722 50.859 129.722C51.363 129.722 51.765 129.668 52.065 129.56C52.377 129.44 52.593 129.356 52.713 129.308L53.037 130.694C52.869 130.778 52.575 130.88 52.155 131C51.735 131.132 51.255 131.198 50.715 131.198C50.079 131.198 49.551 131.12 49.131 130.964C48.723 130.796 48.393 130.55 48.141 130.226C47.889 129.902 47.709 129.506 47.601 129.038C47.505 128.558 47.457 128.006 47.457 127.382V119.03L49.131 118.742V121.64Z" fill="#D9A5F2"/>
<path d="M65.3172 129.794C66.0012 129.794 66.5052 129.704 66.8292 129.524C67.1652 129.344 67.3332 129.056 67.3332 128.66C67.3332 128.252 67.1712 127.928 66.8472 127.688C66.5232 127.448 65.9892 127.178 65.2452 126.878C64.8852 126.734 64.5372 126.59 64.2012 126.446C63.8772 126.29 63.5952 126.11 63.3552 125.906C63.1152 125.702 62.9232 125.456 62.7792 125.168C62.6352 124.88 62.5632 124.526 62.5632 124.106C62.5632 123.278 62.8692 122.624 63.4812 122.144C64.0932 121.652 64.9272 121.406 65.9832 121.406C66.2472 121.406 66.5112 121.424 66.7752 121.46C67.0392 121.484 67.2852 121.52 67.5132 121.568C67.7412 121.604 67.9392 121.646 68.1072 121.694C68.2872 121.742 68.4252 121.784 68.5212 121.82L68.2152 123.26C68.0352 123.164 67.7532 123.068 67.3692 122.972C66.9852 122.864 66.5232 122.81 65.9832 122.81C65.5152 122.81 65.1072 122.906 64.7592 123.098C64.4112 123.278 64.2372 123.566 64.2372 123.962C64.2372 124.166 64.2732 124.346 64.3452 124.502C64.4292 124.658 64.5492 124.802 64.7052 124.934C64.8732 125.054 65.0772 125.168 65.3172 125.276C65.5572 125.384 65.8452 125.498 66.1812 125.618C66.6252 125.786 67.0212 125.954 67.3692 126.122C67.7172 126.278 68.0112 126.464 68.2512 126.68C68.5032 126.896 68.6952 127.16 68.8272 127.472C68.9592 127.772 69.0252 128.144 69.0252 128.588C69.0252 129.452 68.7012 130.106 68.0532 130.55C67.4172 130.994 66.5052 131.216 65.3172 131.216C64.4892 131.216 63.8412 131.144 63.3732 131C62.9052 130.868 62.5872 130.766 62.4192 130.694L62.7252 129.254C62.9172 129.326 63.2232 129.434 63.6432 129.578C64.0632 129.722 64.6212 129.794 65.3172 129.794ZM74.5564 125.852C74.9164 126.128 75.2944 126.47 75.6904 126.878C76.0984 127.286 76.4944 127.73 76.8784 128.21C77.2744 128.678 77.6464 129.158 77.9944 129.65C78.3424 130.13 78.6364 130.58 78.8764 131H76.9144C76.6624 130.58 76.3684 130.154 76.0324 129.722C75.7084 129.278 75.3664 128.858 75.0064 128.462C74.6464 128.054 74.2804 127.682 73.9084 127.346C73.5364 127.01 73.1824 126.728 72.8464 126.5V131H71.1724V117.32L72.8464 117.032V125.564C73.1344 125.276 73.4524 124.958 73.8004 124.61C74.1484 124.262 74.4904 123.908 74.8264 123.548C75.1624 123.188 75.4804 122.846 75.7804 122.522C76.0804 122.186 76.3384 121.892 76.5544 121.64H78.5164C78.2404 121.94 77.9404 122.27 77.6164 122.63C77.2924 122.99 76.9564 123.356 76.6084 123.728C76.2604 124.088 75.9064 124.454 75.5464 124.826C75.1984 125.186 74.8684 125.528 74.5564 125.852ZM82.2507 131H80.5767V121.64H82.2507V131ZM81.4047 119.948C81.1047 119.948 80.8467 119.852 80.6307 119.66C80.4267 119.456 80.3247 119.186 80.3247 118.85C80.3247 118.514 80.4267 118.25 80.6307 118.058C80.8467 117.854 81.1047 117.752 81.4047 117.752C81.7047 117.752 81.9567 117.854 82.1607 118.058C82.3767 118.25 82.4847 118.514 82.4847 118.85C82.4847 119.186 82.3767 119.456 82.1607 119.66C81.9567 119.852 81.7047 119.948 81.4047 119.948ZM87.9375 131.18C86.9055 131.156 86.1735 130.934 85.7415 130.514C85.3095 130.094 85.0935 129.44 85.0935 128.552V117.32L86.7675 117.032V128.282C86.7675 128.558 86.7915 128.786 86.8395 128.966C86.8875 129.146 86.9655 129.29 87.0735 129.398C87.1815 129.506 87.3255 129.59 87.5055 129.65C87.6855 129.698 87.9075 129.74 88.1715 129.776L87.9375 131.18ZM92.8593 131.18C91.8273 131.156 91.0953 130.934 90.6633 130.514C90.2313 130.094 90.0153 129.44 90.0153 128.552V117.32L91.6893 117.032V128.282C91.6893 128.558 91.7133 128.786 91.7613 128.966C91.8093 129.146 91.8873 129.29 91.9953 129.398C92.1033 129.506 92.2473 129.59 92.4273 129.65C92.6073 129.698 92.8293 129.74 93.0933 129.776L92.8593 131.18ZM97.9792 129.758C99.8032 129.758 100.715 129.134 100.715 127.886C100.715 127.502 100.631 127.178 100.463 126.914C100.307 126.638 100.091 126.404 99.8152 126.212C99.5392 126.008 99.2212 125.834 98.8612 125.69C98.5132 125.546 98.1412 125.402 97.7452 125.258C97.2892 125.102 96.8572 124.928 96.4492 124.736C96.0412 124.532 95.6872 124.298 95.3872 124.034C95.0872 123.758 94.8472 123.434 94.6672 123.062C94.4992 122.69 94.4152 122.24 94.4152 121.712C94.4152 120.62 94.7872 119.768 95.5312 119.156C96.2752 118.544 97.3012 118.238 98.6092 118.238C99.3652 118.238 100.049 118.322 100.661 118.49C101.285 118.646 101.741 118.82 102.029 119.012L101.471 120.434C101.219 120.278 100.841 120.128 100.337 119.984C99.8452 119.828 99.2692 119.75 98.6092 119.75C98.2732 119.75 97.9612 119.786 97.6732 119.858C97.3852 119.93 97.1332 120.038 96.9172 120.182C96.7012 120.326 96.5272 120.512 96.3952 120.74C96.2752 120.956 96.2152 121.214 96.2152 121.514C96.2152 121.85 96.2812 122.132 96.4132 122.36C96.5452 122.588 96.7312 122.792 96.9712 122.972C97.2112 123.14 97.4872 123.296 97.7992 123.44C98.1232 123.584 98.4772 123.728 98.8612 123.872C99.4012 124.088 99.8932 124.304 100.337 124.52C100.793 124.736 101.183 124.994 101.507 125.294C101.843 125.594 102.101 125.954 102.281 126.374C102.461 126.782 102.551 127.28 102.551 127.868C102.551 128.96 102.149 129.8 101.345 130.388C100.553 130.976 99.4312 131.27 97.9792 131.27C97.4872 131.27 97.0312 131.234 96.6112 131.162C96.2032 131.102 95.8372 131.03 95.5132 130.946C95.1892 130.85 94.9072 130.754 94.6672 130.658C94.4392 130.55 94.2592 130.46 94.1272 130.388L94.6492 128.948C94.9252 129.104 95.3452 129.278 95.9092 129.47C96.4732 129.662 97.1632 129.758 97.9792 129.758ZM104.031 126.338C104.031 125.51 104.151 124.79 104.391 124.178C104.631 123.554 104.949 123.038 105.345 122.63C105.741 122.222 106.197 121.916 106.713 121.712C107.229 121.508 107.757 121.406 108.297 121.406C109.557 121.406 110.523 121.802 111.195 122.594C111.867 123.374 112.203 124.568 112.203 126.176C112.203 126.248 112.203 126.344 112.203 126.464C112.203 126.572 112.197 126.674 112.185 126.77H105.777C105.849 127.742 106.131 128.48 106.623 128.984C107.115 129.488 107.883 129.74 108.927 129.74C109.515 129.74 110.007 129.692 110.403 129.596C110.811 129.488 111.117 129.386 111.321 129.29L111.555 130.694C111.351 130.802 110.991 130.916 110.475 131.036C109.971 131.156 109.395 131.216 108.747 131.216C107.931 131.216 107.223 131.096 106.623 130.856C106.035 130.604 105.549 130.262 105.165 129.83C104.781 129.398 104.493 128.888 104.301 128.3C104.121 127.7 104.031 127.046 104.031 126.338ZM110.457 125.42C110.469 124.664 110.277 124.046 109.881 123.566C109.497 123.074 108.963 122.828 108.279 122.828C107.895 122.828 107.553 122.906 107.253 123.062C106.965 123.206 106.719 123.398 106.515 123.638C106.311 123.878 106.149 124.154 106.029 124.466C105.921 124.778 105.849 125.096 105.813 125.42H110.457ZM116.174 121.64H119.72V123.044H116.174V127.364C116.174 127.832 116.21 128.222 116.282 128.534C116.354 128.834 116.462 129.074 116.606 129.254C116.75 129.422 116.93 129.542 117.146 129.614C117.362 129.686 117.614 129.722 117.902 129.722C118.406 129.722 118.808 129.668 119.108 129.56C119.42 129.44 119.636 129.356 119.756 129.308L120.08 130.694C119.912 130.778 119.618 130.88 119.198 131C118.778 131.132 118.298 131.198 117.758 131.198C117.122 131.198 116.594 131.12 116.174 130.964C115.766 130.796 115.436 130.55 115.184 130.226C114.932 129.902 114.752 129.506 114.644 129.038C114.548 128.558 114.5 128.006 114.5 127.382V119.03L116.174 118.742V121.64ZM158.429 111.425H164.054V113.25H160.604V133.8H164.054V135.625H158.429V111.425ZM177.149 119.56C177.149 119.399 177.149 119.245 177.149 119.098C177.149 118.937 177.156 118.783 177.171 118.636C177.23 117.873 177.398 117.118 177.677 116.37C177.956 115.622 178.293 114.925 178.689 114.28L180.273 114.786C179.965 115.431 179.73 116.084 179.569 116.744C179.422 117.404 179.349 118.02 179.349 118.592C179.349 118.739 179.349 118.9 179.349 119.076C179.364 119.237 179.378 119.399 179.393 119.56H177.149ZM212.878 119.56C212.878 119.399 212.878 119.245 212.878 119.098C212.878 118.937 212.885 118.783 212.9 118.636C212.958 117.873 213.127 117.118 213.406 116.37C213.684 115.622 214.022 114.925 214.418 114.28L216.002 114.786C215.694 115.431 215.459 116.084 215.298 116.744C215.151 117.404 215.078 118.02 215.078 118.592C215.078 118.739 215.078 118.9 215.078 119.076C215.092 119.237 215.107 119.399 215.122 119.56H212.878ZM225.743 128.492C225.758 128.609 225.765 128.727 225.765 128.844C225.765 128.947 225.765 129.057 225.765 129.174C225.765 130.098 225.626 131.007 225.347 131.902C225.083 132.811 224.716 133.677 224.247 134.498L222.663 133.992C223.03 133.244 223.272 132.481 223.389 131.704C223.506 130.941 223.565 130.223 223.565 129.548C223.565 129.357 223.558 129.174 223.543 128.998C223.543 128.822 223.536 128.653 223.521 128.492H225.743ZM243.837 119.56C243.837 119.399 243.837 119.245 243.837 119.098C243.837 118.937 243.844 118.783 243.859 118.636C243.917 117.873 244.086 117.118 244.365 116.37C244.643 115.622 244.981 114.925 245.377 114.28L246.961 114.786C246.653 115.431 246.418 116.084 246.257 116.744C246.11 117.404 246.037 118.02 246.037 118.592C246.037 118.739 246.037 118.9 246.037 119.076C246.051 119.237 246.066 119.399 246.081 119.56H243.837ZM279.565 119.56C279.565 119.399 279.565 119.245 279.565 119.098C279.565 118.937 279.572 118.783 279.587 118.636C279.646 117.873 279.814 117.118 280.093 116.37C280.372 115.622 280.709 114.925 281.105 114.28L282.689 114.786C282.381 115.431 282.146 116.084 281.985 116.744C281.838 117.404 281.765 118.02 281.765 118.592C281.765 118.739 281.765 118.9 281.765 119.076C281.78 119.237 281.794 119.399 281.809 119.56H279.565ZM292.431 128.492C292.445 128.609 292.453 128.727 292.453 128.844C292.453 128.947 292.453 129.057 292.453 129.174C292.453 130.098 292.313 131.007 292.035 131.902C291.771 132.811 291.404 133.677 290.935 134.498L289.351 133.992C289.717 133.244 289.959 132.481 290.077 131.704C290.194 130.941 290.253 130.223 290.253 129.548C290.253 129.357 290.245 129.174 290.231 128.998C290.231 128.822 290.223 128.653 290.209 128.492H292.431ZM313.054 114.5C313.054 114.661 313.054 114.823 313.054 114.984C313.054 115.131 313.047 115.277 313.032 115.424C312.973 116.187 312.805 116.942 312.526 117.69C312.247 118.423 311.91 119.12 311.514 119.78L309.93 119.274C310.238 118.614 310.465 117.961 310.612 117.316C310.773 116.656 310.854 116.04 310.854 115.468C310.854 115.321 310.847 115.167 310.832 115.006C310.832 114.83 310.825 114.661 310.81 114.5H313.054ZM346.253 119.56C346.253 119.399 346.253 119.245 346.253 119.098C346.253 118.937 346.26 118.783 346.275 118.636C346.333 117.873 346.502 117.118 346.781 116.37C347.059 115.622 347.397 114.925 347.793 114.28L349.377 114.786C349.069 115.431 348.834 116.084 348.673 116.744C348.526 117.404 348.453 118.02 348.453 118.592C348.453 118.739 348.453 118.9 348.453 119.076C348.467 119.237 348.482 119.399 348.497 119.56H346.253ZM359.118 128.492C359.133 128.609 359.14 128.727 359.14 128.844C359.14 128.947 359.14 129.057 359.14 129.174C359.14 130.098 359.001 131.007 358.722 131.902C358.458 132.811 358.091 133.677 357.622 134.498L356.038 133.992C356.405 133.244 356.647 132.481 356.764 131.704C356.881 130.941 356.94 130.223 356.94 129.548C356.94 129.357 356.933 129.174 356.918 128.998C356.918 128.822 356.911 128.653 356.896 128.492H359.118ZM379.742 114.5C379.742 114.661 379.742 114.823 379.742 114.984C379.742 115.131 379.734 115.277 379.72 115.424C379.661 116.187 379.492 116.942 379.214 117.69C378.935 118.423 378.598 119.12 378.202 119.78L376.618 119.274C376.926 118.614 377.153 117.961 377.3 117.316C377.461 116.656 377.542 116.04 377.542 115.468C377.542 115.321 377.534 115.167 377.52 115.006C377.52 114.83 377.512 114.661 377.498 114.5H379.742ZM423.124 119.56C423.124 119.399 423.124 119.245 423.124 119.098C423.124 118.937 423.131 118.783 423.146 118.636C423.204 117.873 423.373 117.118 423.652 116.37C423.93 115.622 424.268 114.925 424.664 114.28L426.248 114.786C425.94 115.431 425.705 116.084 425.544 116.744C425.397 117.404 425.324 118.02 425.324 118.592C425.324 118.739 425.324 118.9 425.324 119.076C425.338 119.237 425.353 119.399 425.368 119.56H423.124ZM430.897 128.492C430.912 128.609 430.919 128.727 430.919 128.844C430.919 128.947 430.919 129.057 430.919 129.174C430.919 130.098 430.78 131.007 430.501 131.902C430.237 132.811 429.871 133.677 429.401 134.498L427.817 133.992C428.184 133.244 428.426 132.481 428.543 131.704C428.661 130.941 428.719 130.223 428.719 129.548C428.719 129.357 428.712 129.174 428.697 128.998C428.697 128.822 428.69 128.653 428.675 128.492H430.897ZM451.521 114.5C451.521 114.661 451.521 114.823 451.521 114.984C451.521 115.131 451.514 115.277 451.499 115.424C451.44 116.187 451.272 116.942 450.993 117.69C450.714 118.423 450.377 119.12 449.981 119.78L448.397 119.274C448.705 118.614 448.932 117.961 449.079 117.316C449.24 116.656 449.321 116.04 449.321 115.468C449.321 115.321 449.314 115.167 449.299 115.006C449.299 114.83 449.292 114.661 449.277 114.5H451.521ZM484.719 119.56C484.719 119.399 484.719 119.245 484.719 119.098C484.719 118.937 484.727 118.783 484.741 118.636C484.8 117.873 484.969 117.118 485.247 116.37C485.526 115.622 485.863 114.925 486.259 114.28L487.843 114.786C487.535 115.431 487.301 116.084 487.139 116.744C486.993 117.404 486.919 118.02 486.919 118.592C486.919 118.739 486.919 118.9 486.919 119.076C486.934 119.237 486.949 119.399 486.963 119.56H484.719ZM497.585 128.492C497.6 128.609 497.607 128.727 497.607 128.844C497.607 128.947 497.607 129.057 497.607 129.174C497.607 130.098 497.468 131.007 497.189 131.902C496.925 132.811 496.558 133.677 496.089 134.498L494.505 133.992C494.872 133.244 495.114 132.481 495.231 131.704C495.348 130.941 495.407 130.223 495.407 129.548C495.407 129.357 495.4 129.174 495.385 128.998C495.385 128.822 495.378 128.653 495.363 128.492H497.585ZM510.587 119.56C510.587 119.399 510.587 119.245 510.587 119.098C510.587 118.937 510.594 118.783 510.609 118.636C510.667 117.873 510.836 117.118 511.115 116.37C511.393 115.622 511.731 114.925 512.127 114.28L513.711 114.786C513.403 115.431 513.168 116.084 513.007 116.744C512.86 117.404 512.787 118.02 512.787 118.592C512.787 118.739 512.787 118.9 512.787 119.076C512.801 119.237 512.816 119.399 512.831 119.56H510.587ZM551.407 119.56C551.407 119.399 551.407 119.245 551.407 119.098C551.407 118.937 551.414 118.783 551.429 118.636C551.488 117.873 551.656 117.118 551.935 116.37C552.214 115.622 552.551 114.925 552.947 114.28L554.531 114.786C554.223 115.431 553.988 116.084 553.827 116.744C553.68 117.404 553.607 118.02 553.607 118.592C553.607 118.739 553.607 118.9 553.607 119.076C553.622 119.237 553.636 119.399 553.651 119.56H551.407ZM565.482 135.07H560.532V133.464H563.568V115.38H560.532V113.774H565.482V135.07ZM576.604 128.492C576.619 128.609 576.626 128.727 576.626 128.844C576.626 128.947 576.626 129.057 576.626 129.174C576.626 130.098 576.487 131.007 576.208 131.902C575.944 132.811 575.578 133.677 575.108 134.498L573.524 133.992C573.891 133.244 574.133 132.481 574.25 131.704C574.368 130.941 574.426 130.223 574.426 129.548C574.426 129.357 574.419 129.174 574.404 128.998C574.404 128.822 574.397 128.653 574.382 128.492H576.604ZM576.868 121.034C576.868 121.43 576.736 121.775 576.472 122.068C576.208 122.361 575.849 122.508 575.394 122.508C574.94 122.508 574.58 122.361 574.316 122.068C574.052 121.775 573.92 121.43 573.92 121.034C573.92 120.638 574.052 120.293 574.316 120C574.58 119.707 574.94 119.56 575.394 119.56C575.849 119.56 576.208 119.707 576.472 120C576.736 120.293 576.868 120.638 576.868 121.034Z" fill="white"/>
<path d="M133.862 126.824H142.106V128.246H133.862V126.824ZM133.862 122.99H142.106V124.412H133.862V122.99Z" fill="#7EDBAE"/>
<defs>
<clipPath id="clip0">
<rect y="-37" width="616" height="295" fill="white"/>
</clipPath>
</defs>
</svg>
